<?xml version="1.0" standalone="no"?>
<!DOCTYPE svg PUBLIC "-//W3C//DTD SVG 1.1//EN" "http://www.w3.org/Graphics/SVG/1.1/DTD/svg11.dtd" >
<svg xmlns="http://www.w3.org/2000/svg">
<metadata>Generated by IcoMoon</metadata>
<defs>
<font id="icomoon" horiz-adv-x="512">
<font-face units-per-em="512" ascent="480" descent="-32" />
<missing-glyph horiz-adv-x="512" />
<glyph unicode="&#x20;" d="" horiz-adv-x="256" />
<glyph unicode="&#xe600;" d="M114.526 213.894l212.21-101.053c13.474-6.737 20.211-10.106 23.579-16.842s6.737-13.474 6.737-20.211c0-10.106-3.368-16.842-10.106-23.579-6.737-6.737-13.474-10.106-23.579-10.106-3.368 0-6.737 0-13.474 3.368s-10.106 3.368-16.842 6.737l-252.631 121.263c0 0-3.368 0-6.737 3.368-23.579 10.106-33.684 20.211-33.684 37.053 0 13.474 13.473 26.947 37.053 37.053h3.368l259.368 121.263c6.737 6.737 13.474 6.737 16.842 10.106 3.368 0 6.737 3.369 10.106 3.369 10.106 0 16.842-3.369 23.579-10.106 6.737-6.737 10.106-13.474 10.106-23.579 0-6.737-3.368-13.474-6.737-20.21-3.368-6.737-13.474-10.106-23.579-16.842l-215.579-101.053zM656.842 412.632l-192-410.947c-6.737-13.474-10.106-20.211-16.842-26.947-3.368-3.368-10.106-6.737-16.842-6.737-10.106 0-20.211 3.368-26.947 10.106-6.737 6.737-10.106 13.474-10.106 23.579 0 6.737 3.368 16.842 10.106 30.316v0l192 410.947c6.737 13.474 10.106 23.579 16.842 26.947 3.369 3.368 10.106 6.737 16.842 6.737 10.106 0 20.211-3.369 26.947-10.106s10.106-13.474 10.106-23.579c0-3.368 0-6.737-3.369-13.474 0 0-3.369-6.737-6.737-16.842zM960 213.894l-212.211 101.053c-10.106 6.737-20.211 10.106-23.579 16.842-3.369 6.737-6.737 13.474-6.737 20.211 0 10.106 3.369 16.842 6.737 23.579s13.473 10.106 23.579 10.106c3.369 0 6.737 0 13.473-3.368 0-3.368 6.737-3.368 13.473-6.737l259.368-121.263h3.369c23.579-10.106 37.053-23.579 37.053-37.053s-10.105-26.947-33.684-37.053c-3.369 0-3.369-3.368-6.737-3.368l-259.369-124.632c-6.737-3.368-13.473-6.737-16.842-6.737s-10.106-3.368-13.473-3.368c-10.106 0-16.842 3.368-23.579 6.737s-6.737 13.474-6.737 23.579c0 6.737 3.369 13.474 6.737 20.211 3.369 6.737 13.473 10.106 23.579 16.842l215.579 104.421z" horiz-adv-x="1075" />
<glyph unicode="&#xe601;" d="M393.447 478.869h-39.298v-39.298h39.298v-39.298h39.298v78.596zM314.947 360.976v78.596h-314.192v-471.195h392.693v392.599h-78.501zM314.947 46.878h-78.501v235.598h-78.501v-235.598h-78.689v314.099h157.002v-78.501h78.501v-235.598z" horiz-adv-x="433" />
<glyph unicode="&#xe602;" d="M6.665 152.199v313.865h88.767l83.616-217.524h0.909v217.524h61.197v-313.865h-86.646l-85.434 229.339h-0.909v-229.643h-61.501zM268.421 371.541h24.843v34.84l61.197 27.267v-62.106h31.81v-37.87h-31.81v-117.245c0-3.938 0-7.877 0.303-11.209 0-3.332 0.909-6.362 1.818-8.786 1.212-2.423 3.029-4.241 5.756-5.454 2.726-1.212 6.665-1.818 11.512-1.818 2.12 0 3.938 0 5.756 0 2.12 0 3.635 0.303 5.151 0.909v-37.87c-3.938-0.606-8.483-1.212-13.33-1.515-4.848-0.303-10.906-0.606-18.481-0.606-13.33 0-23.933 1.818-31.81 5.756-7.877 3.635-13.936 8.18-18.178 13.33-4.241 5.151-6.968 10.603-8.18 16.057-1.212 5.454-1.818 9.998-1.818 13.33v135.423h-24.842v37.567zM521.391 152.199v151.176c0 9.998-1.515 18.178-4.241 24.843s-9.089 9.998-18.784 9.998c-9.998 0-16.057-3.332-18.784-9.998-2.726-6.665-4.241-14.845-4.241-24.843v-151.176h-61.197v313.865h61.197v-116.639h0.909c5.756 9.695 13.027 16.36 21.813 20.298 8.18 3.939 18.178 6.059 29.993 6.059 7.271 0 14.239-1.212 20.904-3.333 6.665-2.12 12.422-5.15 17.269-9.392 4.847-3.938 8.786-9.089 11.816-15.148 3.029-6.059 4.544-12.724 4.544-20.298v-176.019h-61.197zM777.997 369.42c0 7.271-0.303 14.239-1.212 20.904-0.606 6.665-2.423 12.421-5.15 17.268-2.726 4.848-6.665 8.786-11.816 11.816-5.15 3.029-12.119 4.544-20.904 4.544-10.3 0-17.875-3.332-23.631-9.695-5.453-6.362-9.694-14.845-12.119-25.752-2.726-10.603-4.241-23.025-4.544-37.264-0.303-13.936-0.606-28.478-0.606-43.626 0-24.539 0.606-44.535 2.12-59.683 1.515-15.148 3.938-26.661 7.271-35.143 3.332-8.18 8.18-13.936 14.239-16.663 6.059-3.029 13.633-4.241 23.025-4.241 5.453 0 11.21 0.606 16.663 1.818 5.756 1.212 10.907 2.726 15.754 4.241v69.68h-35.749v48.776h101.188v-159.053c-4.241-0.909-10.301-1.818-17.572-3.029-7.271-1.212-15.148-2.423-23.631-3.332-8.483-1.212-16.663-2.12-25.145-2.726-8.483-0.606-15.754-1.212-22.116-1.212-27.569 0-49.382 3.029-65.742 8.786-16.36 6.059-28.781 15.451-37.264 28.781-8.483 13.33-13.936 30.296-16.36 51.2-2.423 20.904-3.635 46.353-3.635 76.043 0 19.692 0.909 39.082 2.423 58.168 1.515 19.087 6.059 36.052 13.027 51.2 6.968 14.845 18.178 26.964 33.023 36.355 14.845 9.392 35.749 13.936 62.712 13.936 16.057 0 30.296-2.12 43.323-6.665 13.027-4.545 23.631-10.906 32.72-19.693 8.786-8.483 15.451-19.087 19.692-31.81 4.241-12.724 5.756-27.267 5.15-43.626h-65.136zM942.807 252.175c0-6.665 0.303-13.633 0.606-21.207 0.303-7.574 1.515-14.542 3.332-21.207 1.818-6.665 4.544-11.815 8.18-16.36 3.938-4.241 9.089-6.665 15.754-6.665 5.453 0 9.997 1.212 13.33 3.635 3.332 2.423 6.059 5.454 7.877 9.089 1.818 3.635 3.332 7.877 3.938 12.724 0.606 4.545 1.212 9.392 1.212 13.936h62.106c-0.909-24.54-8.786-43.626-23.328-56.956-7.271-6.665-16.36-11.815-26.963-15.754-10.604-3.635-23.328-5.756-37.87-5.756-19.692 0-35.446 3.029-47.261 8.786-11.816 5.756-20.904 13.936-27.266 24.236-6.362 10.3-10.3 22.722-12.119 36.961-1.818 14.239-2.726 29.993-2.726 47.262 0 15.148 0.909 29.387 2.726 42.717 1.818 13.633 5.756 25.145 11.816 35.446 6.059 9.997 15.148 18.177 26.963 24.236 11.816 6.059 27.872 8.786 48.17 8.786 20.601 0 36.961-3.332 49.080-9.695 12.118-6.362 21.207-15.148 27.267-26.054 6.059-10.907 9.997-23.934 11.513-39.082 1.515-15.148 2.12-31.508 1.515-49.080h-117.851zM999.158 286.409c0 5.151 0 10.907-0.303 16.966 0 6.059-1.212 11.815-2.726 16.966-1.818 5.15-4.544 9.391-8.483 12.724-3.938 3.333-9.694 5.151-16.966 5.151-6.968 0-12.422-1.818-16.36-5.454-3.635-3.636-6.665-8.18-8.18-13.33-1.818-5.454-2.726-10.907-3.029-16.966-0.303-6.059-0.303-11.209-0.303-15.754h56.351zM1159.422 349.425h0.909c5.756 9.695 13.027 16.36 21.813 20.298 8.18 3.939 18.178 6.059 29.993 6.059 7.271 0 14.239-1.212 20.904-3.333 6.665-2.12 12.421-5.15 17.268-9.392 4.848-3.938 8.786-9.089 11.815-15.148 3.030-6.059 4.544-12.724 4.544-20.298v-176.019h-61.197v151.782c0 9.998-1.515 18.178-4.242 24.843s-9.089 9.998-18.784 9.998c-9.997 0-16.057-3.332-18.784-9.998-2.726-6.665-4.242-14.845-4.242-24.843v-151.176h-61.197v219.342h61.197v-22.116zM133.302 6.779h16.662c0-4.848 1.818-8.786 5.15-11.209 3.030-2.12 6.968-3.332 12.119-3.332 3.939 0 7.271 0.606 9.998 1.818 3.636 1.818 5.453 4.241 5.453 7.877 0 4.545-3.939 7.877-12.119 9.998-13.936 3.938-21.51 6.362-22.419 6.968-8.18 3.938-12.119 9.998-12.119 18.481 0 7.574 3.030 13.633 9.392 17.875 5.453 3.938 12.119 5.756 19.995 5.756 9.089 0 16.36-1.818 21.813-5.756 6.362-4.545 9.695-10.906 9.695-19.389h-16.662c-0.303 7.877-5.756 11.815-15.451 11.815-3.030 0-5.756-0.606-8.18-2.12-2.423-1.515-3.939-3.938-3.939-6.968 0-2.726 1.515-4.848 4.242-6.362 2.12-0.909 8.483-3.029 19.087-5.756 6.059-1.515 10.603-3.332 13.633-5.151 6.362-4.241 9.695-9.998 9.695-17.572 0-7.574-2.726-13.633-8.483-18.178-5.756-4.848-13.936-7.271-24.237-7.271-9.392 0-17.268 2.12-23.328 6.665-6.665 5.756-10.3 12.724-9.998 21.813zM261.151 19.503c0 12.118 3.332 21.813 10.3 29.387 6.968 7.877 16.36 12.118 28.478 12.118 11.815 0 21.207-3.938 28.478-12.118 6.968-7.574 10.3-17.572 10.3-29.387 0-11.815-3.332-21.51-10.3-29.084-7.271-7.877-16.663-11.815-28.478-11.815-11.815 0-21.207 3.938-28.478 11.815-6.968 7.877-10.3 17.572-10.3 29.084zM278.419 19.503c0-7.271 1.515-13.33 4.848-18.178 3.938-5.454 9.392-8.18 16.36-8.18 7.271 0 12.724 2.726 16.663 8.18 3.332 4.848 4.848 10.603 4.848 18.178 0 7.574-1.515 13.936-4.848 18.481-3.635 5.454-9.392 8.483-16.663 8.483-7.271 0-12.724-2.726-16.36-8.483-3.029-4.545-4.848-10.603-4.848-18.481zM405.358-19.276v78.466h55.139v-14.542h-37.87v-18.178h33.022v-13.33h-33.022v-32.416h-17.269zM549.567-19.276v63.925h-23.631v14.542h64.227v-14.542h-23.631v-63.925h-16.966zM752.852 59.19l-21.207-78.466h-17.269l-13.33 53.623h-0.303l-13.027-53.623h-17.572l-20.904 78.466h17.269l12.422-53.623h0.303l13.633 53.623h16.057l13.33-54.229h0.303l13.027 54.23h17.269zM807.385-19.276l29.69 78.466h17.572l29.387-78.466h-17.572l-6.059 17.572h-29.387l-6.059-17.572h-17.572zM845.861 39.801l-10.301-28.781h20.298l-9.997 28.781zM946.139-19.276v78.466h42.414c6.968 0 12.422-2.12 16.966-6.362 4.241-4.241 6.059-9.089 6.059-15.148 0-9.695-4.241-16.36-12.422-19.692v-0.303c6.968-1.818 10.604-7.877 11.513-18.481 0.303-3.029 0.303-6.362 0.606-9.392 0.303-4.241 1.212-7.271 2.726-9.089h-17.269c-0.909 2.12-1.515 4.848-1.818 8.786-0.303 3.332-0.606 6.665-0.909 9.998-0.606 4.241-1.818 7.271-3.938 9.089-1.818 1.818-5.15 2.726-9.391 2.726h-17.269v-30.599h-17.269zM963.409 45.861v-22.116h18.784c7.877 0 11.816 3.635 11.816 11.209 0 7.271-3.938 10.906-11.816 10.906h-18.784zM1080.653-19.276v78.466h58.774v-14.542h-41.505v-16.966h38.173v-13.33h-38.173v-19.389h42.414v-14.542h-59.683z" horiz-adv-x="1270" />
<glyph unicode="&#xe603;" d="M635.909 475.324h-589.15c-23.379 0-42.082-18.703-42.082-42.082v-420.822c0-23.379 18.703-42.082 42.082-42.082h589.15c23.379 0 42.082 18.703 42.082 42.082v420.822c0 23.379-18.703 42.082-42.082 42.082zM575.124 409.863l-233.79-187.032-233.79 187.032h467.58zM621.881 35.799h-561.096v327.306l280.548-233.79 280.548 233.79v-327.306z" horiz-adv-x="681" />
<glyph unicode="&#xe604;" d="M766.405 479.291c-0.708 0-1.063 0-1.771 0v0h-508.457c-141.022 0-255.114-114.092-255.114-255.114s114.093-255.114 255.114-255.114c63.070 0 121.179 23.031 165.47 61.298 30.118 0 60.944 0 88.582 0 28.346 0 59.881 0 90.353 0 44.645-37.913 102.4-61.298 165.47-61.298 141.021 0 255.114 114.092 255.114 255.114 0.355 141.021-113.739 255.114-254.76 255.114zM323.499 217.8c0-6.732-5.669-12.401-12.401-12.401h-51.731v-51.731c0-6.732-5.669-12.401-12.401-12.401h-32.952c-6.732 0-12.401 5.669-12.401 12.401v51.377h-51.377c-6.732 0-12.401 5.669-12.401 12.401v32.952c0 6.732 5.669 12.401 12.401 12.401h51.731v51.731c0 6.732 5.669 12.401 12.401 12.401h32.952c6.732 0 12.401-5.669 12.401-12.401v-51.731h51.731c6.732 0 12.401-5.669 12.401-12.401v-32.598zM714.319 189.454c-19.134-14.173-46.063-10.276-60.236 8.858s-10.275 46.063 8.858 60.236c19.134 14.173 46.063 10.275 60.236-8.858 14.173-18.779 10.275-45.708-8.858-60.236zM810.342 107.604c-19.134-14.173-46.063-10.276-60.236 8.858s-10.275 46.063 8.858 60.236c19.134 14.173 46.063 10.276 60.236-8.858 14.173-19.134 10.275-46.063-8.858-60.236zM824.515 272.011c-19.134-14.173-46.063-10.275-60.236 8.858s-10.275 46.063 8.858 60.236c19.134 14.173 46.063 10.275 60.236-8.858 14.173-19.133 10.275-46.063-8.858-60.236zM920.537 189.808c-19.134-14.173-46.063-10.276-60.236 8.858s-10.275 46.063 8.858 60.236c19.134 14.173 46.063 10.276 60.236-8.858 14.173-19.133 9.921-46.063-8.858-60.236z" horiz-adv-x="1022" />
<glyph unicode="&#xe605;" d="M535.539 330.142c-11.936 33.344-39.738 57.973-82.602 74.645-20.651 34.954-53.19 54.847-94.49 54.847-15.867 0-30.976-3.174-40.496-5.542-23.019 15.109-46.842 23.019-70.714 23.019-41.301 0-69.909-23.019-84.97-36.517-0.805 0-0.805 0-1.611 0-42.106 0-66.735-17.477-80.234-32.586-11.13-11.935-16.672-24.629-19.846-34.149-39.738-19.040-51.627-49.258-54.8-71.471-3.174-21.455 2.368-40.496 6.346-53.237-2.368-4.784-3.979-10.326-5.542-15.867-0.805-2.368-0.805-3.978-1.611-3.978v-0.805c-5.542-21.456-4.784-46.084 10.326-69.909 24.629-38.933 61.951-59.584 108.037-59.584 19.040 0 35.76 3.173 46.843 6.346 8.715-6.346 16.672-9.52 19.846-10.325 16.672-7.152 33.344-11.13 50.064-11.13 15.109 0 27.802 3.173 38.128 6.346 13.498-16.672 34.954-26.192 61.147-26.192 0.805 0 2.368 0 3.173 0 7.152-12.693 30.171-76.255 31.781-78.624 3.173-5.541 11.935-15.109 28.608-15.109 11.13 0 29.365 3.978 46.843 14.304 20.651 13.498 30.171 31.781 30.976 44.474 0.805 8.715-15.109 43.669-22.261 59.584 32.586 13.498 47.647 37.322 55.605 57.168 10.326 28.608 7.957 57.973 6.346 74.645 21.456 39.738 27.044 77.060 15.109 109.647zM416.421 108.527c-3.978 0 33.344-75.45 33.344-77.819s-3.978-13.498-16.672-21.456c-11.935-7.152-24.629-9.52-30.976-9.52-1.611 0-3.173 0-3.173 0.805-1.611 2.368-22.261 74.645-42.106 93.733 0 0-0.805 0-2.368 0-3.173 0-8.715-0.805-15.867-0.805-10.325 0-22.261 1.611-32.586 9.52 20.651 13.498 30.171 30.171 37.322 44.474l0.805 1.611c10.325 19.040 21.455 34.954 48.453 34.149 7.957 0 15.109 6.346 15.867 14.304 0.805 7.957-6.346 15.109-14.304 15.867-47.647 1.611-66.735-33.344-76.255-50.063l-0.805-1.611c-10.325-19.040-34.149-46.084-77.819-48.453-11.131-0.805-23.018 2.368-36.518 7.957v0c-7.152 3.173-14.304 7.152-21.456 11.935-10.326 8.715-23.018 22.261-30.976 45.279-3.173 7.957-11.935 11.935-19.040 8.715-7.957-3.173-11.936-11.935-8.715-19.040 5.542-15.867 13.499-27.803 21.456-38.127-6.346-0.805-12.694-1.611-19.846-1.611-26.997 0-59.584 8.715-81.797 45.279-10.325 17.477-10.325 34.149-7.152 47.647v0c0 0.805 3.978 14.304 19.040 23.018 16.672 9.52 42.106 11.131 73.887 2.368 7.957-2.368 16.672 2.368 18.282 11.131 2.368 7.957-2.368 16.672-11.131 18.283-40.59 10.372-73.177 8.762-97.001-6.346-5.541 24.629-4.784 61.146 47.647 80.234 2.368 0.805 7.957 57.973 76.255 57.973 3.978 0 8.715-1.611 13.499-1.611v0c1.611 0 28.607 38.127 73.082 38.127 11.936 0 24.629-2.368 38.933-8.715-12.694-10.325-23.019-23.824-30.171-41.301v0 0 0c-2.368-5.541-3.978-11.13-5.542-15.867-7.957-23.824-11.935-32.586-31.781-32.586-8.715 0-15.109-7.152-15.109-15.109 0-7.957 7.152-15.109 15.109-15.109 24.629 0 38.127 10.326 46.843 23.019 7.152-7.957 18.283-16.672 36.517-18.283 0.805 0 0.805 0 1.611 0 7.957 0 14.304 6.346 15.109 14.304 0.805 7.957-5.541 15.867-13.498 15.867-8.715 0.805-14.304 3.978-17.477 9.52-4.784 7.957-4.784 18.282-2.368 23.019 13.498 41.301 71.471 45.279 74.645 45.279 25.434 0 55.605-9.52 73.082-48.453 0.805-1.611 112.773-27.802 69.909-129.492-0.805 0.805-0.805 1.611-1.611 2.368-15.109 20.65-44.474 45.279-98.516 48.453-7.957 0.805-15.867-5.541-15.867-14.304-0.805-7.957 5.541-15.867 14.304-15.867 79.428-4.784 89.754-65.125 90.559-67.493 0-0.805 0-1.611 0.805-2.368-2.416-31.686-7.2-85.68-77.865-92.832zM297.253 274.537c-19.846 2.368-39.738-4.784-52.431-19.040-11.935-14.304-15.867-32.586-11.131-52.431 1.611-7.152 7.957-11.13 14.304-11.13 1.611 0 2.368 0 3.978 0.805 7.957 2.368 12.694 10.325 11.131 18.282-2.368 10.325-0.805 18.282 4.784 24.629 6.346 6.346 15.867 10.326 26.192 8.715 7.957-0.805 15.867 4.784 16.672 12.694 0.805 7.957-4.736 15.914-13.498 17.477z" horiz-adv-x="544" />
<glyph unicode="&#xe606;" d="M432 480c44.182 0 80-35.817 80-80 0-18.010-5.955-34.629-16-48l-32-32-112 112 32 32c13.371 10.045 29.989 16 48 16zM32 112l-32-144 144 32 296 296-112 112-296-296zM357.789 298.211l-224-224-27.578 27.578 224 224 27.578-27.578z" />
<glyph unicode="&#xe607;" d="M279.533 448c0 0-100.478 0-133.97 0-60.060 0-116.585-45.503-116.585-98.211 0-53.863 40.941-97.333 102.044-97.333 4.249 0 8.378 0.085 12.421 0.376-3.965-7.593-6.801-16.144-6.801-25.021 0-14.969 8.052-27.105 18.234-37.012-7.693 0-15.121-0.224-23.226-0.224-74.391 0.001-131.65-47.379-131.65-96.51 0-48.389 62.771-78.657 137.167-78.657 84.812 0 131.653 48.122 131.653 96.514 0 38.8-11.448 62.036-46.843 87.067-12.108 8.572-35.265 29.418-35.265 41.672 0 14.36 4.098 21.434 25.714 38.323 22.156 17.312 37.836 41.651 37.836 69.958 0 33.703-15.010 66.549-43.186 77.386h42.477l29.98 21.672zM232.74 120.271c1.063-4.486 1.642-9.103 1.642-13.814 0-39.1-25.196-69.655-97.487-69.655-51.421 0-88.558 32.552-88.558 71.65 0 38.321 46.063 70.222 97.482 69.666 12-0.127 23.184-2.058 33.335-5.345 27.913-19.413 47.938-30.381 53.586-52.502zM150.409 266.112c-34.519 1.032-67.318 38.613-73.276 83.93-5.958 45.333 17.185 80.021 51.694 78.995 34.505-1.037 67.319-37.407 73.279-82.729 5.953-45.33-17.195-81.229-51.697-80.196zM416 352v96h-32v-96h-96v-32h96v-96h32v96h96v32z" />
<glyph unicode="&#xe608;" d="M426.672 480h-341.33c-46.936 0-85.342-38.407-85.342-85.344v-341.313c0-46.969 38.406-85.343 85.342-85.343l341.33 0.001c46.938 0 85.328 38.373 85.328 85.344v341.311c0 46.937-38.391 85.344-85.328 85.344zM435.296 224h-83.296v-224h-96v224h-46.263v73.282h46.263v47.593c0 64.671 27.896 103.125 103.935 103.125h87.622v-79.285h-71.565c-21.241 0.035-23.876-11.076-23.876-31.756l-0.116-39.677h96l-12.704-73.282z" />
<glyph unicode="&#xe609;" d="M512 382.791c-18.838-8.354-39.082-14.001-60.33-16.54 21.686 13 38.343 33.585 46.186 58.115-20.298-12.039-42.778-20.78-66.705-25.49-19.16 20.415-46.461 33.17-76.673 33.17-58.011 0-105.044-47.029-105.044-105.039 0-8.233 0.929-16.25 2.72-23.939-87.3 4.382-164.701 46.2-216.509 109.753-9.042-15.514-14.223-33.558-14.223-52.809 0-36.444 18.544-68.596 46.73-87.433-17.219 0.546-33.416 5.271-47.577 13.139-0.010-0.438-0.010-0.878-0.010-1.321 0-50.894 36.209-93.348 84.261-103-8.813-2.4-18.094-3.686-27.674-3.686-6.769 0-13.349 0.66-19.764 1.886 13.368-41.73 52.16-72.103 98.126-72.948-35.95-28.175-81.243-44.967-130.458-44.967-8.479 0-16.84 0.497-25.058 1.47 46.486-29.805 101.701-47.197 161.021-47.197 193.211 0 298.868 160.062 298.868 298.872 0 4.554-0.103 9.084-0.305 13.59 20.528 14.81 38.336 33.31 52.418 54.374z" />
<glyph unicode="&#xe60a;" d="M426 480h-340c-47.3 0-86-38.7-86-86v-340c0-47.3 38.7-86 86-86h340c47.3 0 86 38.7 86 86v340c0 47.3-38.7 86-86 86zM192 64h-64v224h64v-224zM160 320c-17.673 0-32 14.327-32 32s14.327 32 32 32 32-14.327 32-32-14.327-32-32-32zM416 64h-64v128c0 17.673-14.327 32-32 32s-32-14.327-32-32v-128h-64v224h64v-39.736c13.199 18.132 33.376 39.736 56 39.736 39.765 0 72-35.817 72-80v-144z" />
<glyph unicode="&#xe60b;" d="M566.439 269.825l2.067 0.689c-0.689 2.067-11.715 49.615-31.010 98.541-28.942 72.356-60.64 108.189-96.474 108.189h-282.531c-73.044 0-116.457-159.871-128.173-208.797v0c-16.538-9.648-27.564-27.564-27.564-47.548v-101.986c0-26.185 17.916-48.237 42.724-53.75v-67.531c0-15.16 12.404-27.564 27.564-27.564h34.455c15.16 0 27.564 12.404 27.564 27.564v66.154h330.767v-66.154c0-15.16 12.404-27.564 27.564-27.564h34.455c15.16 0 27.564 12.404 27.564 27.564v67.531c23.429 6.202 41.346 27.564 41.346 53.060v101.987c0 21.362-12.404 39.967-30.321 49.615zM158.493 435.897h282.531c25.497 0 62.708-81.313 83.381-159.871h-449.292c20.673 78.557 57.885 159.871 83.381 159.871zM112.323 137.518c-20.673 0-37.901 17.228-37.901 37.901s17.227 37.901 37.9 37.901c20.673 0 37.9-17.228 37.9-37.901 0-21.362-17.227-37.901-37.9-37.901zM443.779 175.418c0 20.673 17.228 37.901 37.901 37.901s37.901-17.228 37.901-37.901c0-20.673-17.228-37.901-37.901-37.901-20.673 0-37.901 16.538-37.901 37.901z" horiz-adv-x="598" />
<glyph unicode="&#xe60c;" d="M552.198 266.314l-63.471 42.314v-338.512h-380.827v338.512l-63.471-42.314-42.314 126.942 105.785 84.628h88.859c12.694-35.967 52.893-63.471 101.554-63.471s90.975 27.504 101.553 63.471h88.86l105.785-84.628-42.314-126.942z" horiz-adv-x="597" />
<glyph unicode="&#xe60d;" d="M494.686 319.227h-138.512v133.565c0 14.84-9.894 24.734-24.735 24.734h-148.406c-14.84 0-24.734-9.894-24.734-24.734v-133.565h-131.092c-14.841 0-24.735-9.893-24.735-24.734v-148.406c0-14.841 9.893-24.735 24.735-24.735h131.092v-126.145c0-14.841 9.893-24.735 24.734-24.735h148.406c14.841 0 24.735 9.894 24.735 24.735v126.145h138.512c14.841 0 24.734 9.894 24.734 24.735v148.406c0 14.84-12.367 24.734-24.735 24.734z" horiz-adv-x="520" />
<glyph unicode="&#xe60e;" d="M249.274 61.378c12.661-12.661 12.661-32.445 0-45.106l-8.705-8.705c-12.661-12.661-32.445-12.661-45.107 0l-156.686 157.477c-12.662 12.661-12.662 32.445 0 45.106l8.705 7.913c12.662 12.661 32.445 12.661 45.106 0l156.686-156.686zM151.147 32.89c12.661-12.661 12.661-32.445 0-45.106l-8.705-7.913c-12.661-12.662-32.445-12.662-45.106 0l-83.882 84.674c-12.662 12.661-12.662 32.445 0 45.106l8.705 8.705c12.662 12.661 32.445 12.661 45.106 0l83.883-85.465zM261.144 387.413c-12.661 12.661-12.661 32.445 0 45.106l8.705 7.913c12.661 12.661 32.445 12.661 45.106 0l156.686-156.686c12.661-12.661 12.661-32.445 0-45.106l-8.705-8.705c-12.661-12.662-32.445-12.662-45.106 0l-156.686 157.477zM359.271 415.11c-12.661 12.661-12.661 32.445 0 45.106l8.705 8.705c12.661 12.661 32.445 12.661 45.106 0l84.674-84.674c12.661-12.661 12.661-32.445 0-45.106l-8.705-8.705c-12.661-12.661-32.445-12.661-45.106 0l-84.674 84.674zM118.466 126.974l230.538 230.538 41.967-41.967-230.538-230.538-41.967 41.967z" horiz-adv-x="509" />
<glyph unicode="&#xe60f;" d="M182.044 131.84c0 13.654-3.413 25.031-10.24 32.995s-18.204 14.791-36.409 22.755c-42.098 17.067-72.818 34.133-92.16 51.2s-28.445 42.098-28.445 75.094c1.138 29.582 10.24 54.613 30.72 73.955s47.786 30.72 80.782 34.134v55.751h42.098v-56.889c31.858-4.551 56.889-18.204 76.231-39.822s28.444-48.924 27.306-83.058v-1.138h-88.746c0 19.342-3.413 34.134-11.378 43.236s-17.066 14.791-29.582 14.791c-12.516 0-21.618-3.413-28.445-11.378s-9.102-18.204-9.102-29.582c0-12.515 3.413-22.755 10.24-29.582s18.205-15.929 36.409-22.755c40.96-17.067 71.68-35.271 91.022-52.338s29.582-42.098 29.582-75.094c0-30.72-10.24-55.751-29.582-75.094s-45.511-29.582-78.507-32.995v-53.476h-42.098v52.338c-34.133 3.413-62.578 15.929-85.334 36.409s-34.133 51.2-32.995 91.022l1.138 1.138h86.471c0-21.618 4.551-37.546 14.791-47.786s21.618-14.791 37.546-14.791c12.516 0 22.756 3.413 29.582 11.378s9.102 17.067 9.102 29.582z" horiz-adv-x="274" />
<glyph unicode="&#xe610;" d="M256 480c-88.366 0-160-71.634-160-160 0-160 160-352 160-352s160 192 160 352c0 88.366-71.635 160-160 160zM256 224c-53.020 0-96 42.98-96 96s42.98 96 96 96 96-42.98 96-96-42.98-96-96-96z" />
<glyph unicode="&#xe611;" d="M329.372 105.372l-105.372 105.373v141.255h64v-114.745l86.628-86.627zM256 480c-141.385 0-256-114.615-256-256s114.615-256 256-256 256 114.615 256 256-114.615 256-256 256zM256 32c-106.039 0-192 85.961-192 192s85.961 192 192 192c106.039 0 192-85.961 192-192 0-106.039-85.961-192-192-192z" />
<glyph unicode="&#xe612;" d="M432 480c-44.186 0-80-35.816-80-80v-240h64v-192h96v432c0 44.184-35.817 80-80 80zM208 480c-8.838 0-16-7.164-16-16v-112c0-4.418-7.164-8-16-8-8.838 0-16 3.582-16 8v112c0 8.836-7.164 16-16 16-8.837 0-16-7.164-16-16v-112c0-4.418-7.164-8-16-8-8.837 0-16 3.582-16 8v112c0 8.836-7.164 16-16 16-8.837 0-16-7.164-16-16v-112c0-4.418-7.164-8-16-8s-16 3.582-16 8v112c0 8.836-7.164 16-16 16s-16-7.164-16-16v-144c0-14.159 12.529-22.055 26.502-32 17.605-12.532 37.498-28.318 37.498-64v-256h96v256c0 35.682 19.893 51.468 37.496 64 13.973 9.945 26.504 17.841 26.504 32v144c0 8.836-7.163 16-16 16z" />
<glyph unicode="&#xe613;" d="M256-32c141.385 0 256 114.615 256 256s-114.615 256-256 256-256-114.615-256-256 114.615-256 256-256zM256 432c114.875 0 208-93.125 208-208s-93.125-208-208-208-208 93.125-208 208 93.125 208 208 208zM128 320c0 17.673 14.327 32 32 32s32-14.327 32-32c0-17.673-14.327-32-32-32-17.673 0-32 14.327-32 32zM320 320c0 17.673 14.327 32 32 32s32-14.327 32-32c0-17.673-14.327-32-32-32-17.673 0-32 14.327-32 32zM352.049 166.37l41.164-24.698c-27.981-46.535-78.958-77.672-137.213-77.672s-109.232 31.137-137.213 77.672l41.164 24.698c19.587-32.574 55.271-54.37 96.049-54.37s76.462 21.796 96.049 54.37z" />
<glyph unicode="&#xe614;" d="M181.856 118.976l20.656 28.912-22.624 22.624-28.912-20.656c-5.36 2.992-11.104 5.392-17.136 7.104l-5.84 35.040h-32l-5.84-35.040c-6.032-1.712-11.776-4.096-17.136-7.104l-28.912 20.656-22.624-22.624 20.656-28.912c-2.992-5.36-5.392-11.104-7.088-17.136l-35.040-5.84v-32l35.040-5.84c1.712-6.032 4.096-11.776 7.104-17.136l-20.656-28.912 22.624-22.624 28.912 20.656c5.36-2.992 11.104-5.392 17.136-7.104l5.84-35.040h32l5.84 35.040c6.032 1.712 11.776 4.096 17.136 7.104l28.912-20.656 22.624 22.624-20.656 28.912c2.992 5.36 5.392 11.104 7.104 17.136l35.040 5.84v32l-35.040 5.84c-1.712 6.032-4.096 11.776-7.104 17.136zM112 48c-17.68 0-32 14.32-32 32s14.32 32 32 32 32-14.32 32-32-14.32-32-32-32zM512 288v32l-33.696 6.128c-0.624 4.016-1.408 7.984-2.368 11.888l28.784 18.544-12.24 29.568-33.472-7.232c-2.112 3.456-4.368 6.816-6.752 10.064l19.504 28.176-22.624 22.624-28.176-19.504c-3.248 2.384-6.608 4.64-10.064 6.752l7.232 33.472-29.568 12.24-18.544-28.784c-3.904 0.944-7.872 1.744-11.888 2.368l-6.128 33.696h-32l-6.128-33.696c-4.016-0.624-7.984-1.408-11.888-2.368l-18.544 28.784-29.568-12.24 7.232-33.472c-3.456-2.112-6.816-4.368-10.064-6.752l-28.176 19.504-22.624-22.624 19.504-28.176c-2.384-3.248-4.64-6.608-6.752-10.064l-33.472 7.232-12.24-29.568 28.784-18.544c-0.944-3.904-1.744-7.872-2.368-11.888l-33.696-6.128v-32l33.696-6.128c0.624-4.016 1.408-7.984 2.368-11.888l-28.784-18.544 12.24-29.568 33.472 7.232c2.112-3.456 4.368-6.816 6.752-10.064l-19.504-28.176 22.624-22.624 28.176 19.504c3.248-2.384 6.608-4.64 10.064-6.752l-7.232-33.472 29.568-12.24 18.544 28.784c3.904-0.944 7.872-1.744 11.888-2.368l6.128-33.696h32l6.128 33.696c4.016 0.624 7.984 1.408 11.888 2.368l18.544-28.784 29.568 12.24-7.232 33.472c3.456 2.112 6.816 4.368 10.064 6.752l28.176-19.504 22.624 22.624-19.504 28.176c2.384 3.248 4.64 6.608 6.752 10.064l33.472-7.232 12.24 29.568-28.784 18.544c0.944 3.904 1.744 7.872 2.368 11.888l33.696 6.128zM336 234.4c-38.432 0-69.6 31.168-69.6 69.6s31.168 69.6 69.6 69.6 69.6-31.168 69.6-69.6c0-38.432-31.168-69.6-69.6-69.6z" />
<glyph unicode="&#xe615;" d="M158.578 475.543h594.868v-97.707h-594.868v97.707zM158.578 271.597h594.868v-97.707h-594.868v97.707zM158.578 67.651h594.868v-97.707h-594.868v97.707z" horiz-adv-x="910" />
<glyph unicode="&#xe616;" d="M479.8 253.9c-1.4 8.7-3.1 17.3-5.3 25.8-2.8 10.8-6.4 21.5-10.8 31.8-8.9 21.2-21.1 41-35.9 58.6-16 18.9-35.3 35.2-56.7 47.7-21.1 12.4-44.1 21.2-68.1 26.1-12.4 2.5-24.9 4-37.6 4.1-9.9 0.1-19.8-0.3-29.6-1.2-25.5-2.5-50.7-9.6-73.9-20.5-19.9-9.4-38.4-21.6-54.8-36.2-16.4-14.6-30.7-31.6-42.2-50.3-12.7-20.8-22.2-43.5-27.4-67.3-4.2-19-6.2-38.6-5.2-58.1 0.9-18.9 3.8-37.8 9.5-55.9 3.6-11.5 7.9-22.7 13.3-33.6 5.3-10.7 11.5-21 18.4-30.7 13.8-19.3 30.6-36.4 49.8-50.5 19.6-14.5 41.7-25.7 64.9-33.1 24.2-7.7 49.9-11.3 75.3-10.4 24.8 0.8 49.4 5.6 72.6 14.5 22.3 8.6 43.2 20.9 61.5 36.3 9.2 7.8 17.4 16.6 25.1 25.9 7.8 9.4 14.8 19.3 20.6 30 5 9.2 9.2 18.8 12.8 28.5 1.8 4.8 3.5 9.6 4.9 14.6 1.5 5.3 2.6 10.8 3.6 16.2 1.5 8.5 2.1 17.3 1.3 25.9-0.7-3.8-1.3-7.5-2.2-11.2-1.1-4.3-2.5-8.5-4.1-12.6-3.2-8.7-7.2-17.1-11-25.5-4.9-10.7-10.6-20.9-16.8-30.8-3.2-5.1-6.5-10.1-10.1-14.9-3.6-4.8-7.7-9.4-11.8-13.9-8.2-9.1-17.1-17.2-27-24.4-10.1-7.4-20.8-13.9-32.1-19.3-22.6-11-47.3-17.6-72.3-19.8-25.6-2.2-51.7 0.3-76.3 7.6-23.4 6.9-45.6 18.1-65.1 32.8-18.9 14.3-35.3 31.9-48.2 51.8-13.5 20.3-22.8 43.2-27.9 67.1-1.3 6.2-2.3 12.6-3 18.9-0.6 5.4-1.1 10.9-1.3 16.4-0.3 11.3 0.4 23 2.1 34.2 3.7 24.6 11.7 48.3 24.1 69.9 11 19.3 25.3 36.7 42.1 51.4 16.8 14.8 36 26.7 56.8 35.1 12 4.9 24.6 8.5 37.4 10.9 6.5 1.2 13 2.2 19.5 2.7 3.2 0.3 6.3 0.3 9.5 0.6 1.3 0 2.6-0.1 3.9-0.1 21.7 0.4 43.5-2.4 64.2-8.9 22.3-7 43.3-18.3 61.5-33 19.1-15.4 35-34.4 47-55.8 10.2-18.2 17.5-37.8 21.9-58.2 1-4.7 1.8-9.4 2.6-14.1 0.7-4.3 3.1-8.3 6.8-10.7 7.8-5.2 18.7-1.7 22.5 6.7 1.3 2.9 1.7 6 1.2 8.9z" />
<glyph unicode="&#xf10b;" d="M132.571 73.143q0 9.428-6.715 16.143t-16.143 6.714-16.143-6.714-6.715-16.143 6.715-16.143 16.143-6.714 16.143 6.714 6.715 16.143zM192 118.857v201.143q0 3.714-2.714 6.429t-6.428 2.714h-146.286q-3.715 0-6.428-2.714t-2.715-6.428v-201.143q0-3.714 2.715-6.428t6.428-2.714h146.286q3.714 0 6.428 2.714t2.714 6.428zM137.143 361.143q0 4.572-4.571 4.572h-45.715q-4.572 0-4.572-4.572t4.572-4.572h45.715q4.572 0 4.572 4.572zM219.429 365.714v-292.571q0-14.857-10.857-25.714t-25.714-10.857h-146.286q-14.857 0-25.715 10.857t-10.857 25.714v292.572q0 14.857 10.857 25.714t25.715 10.857h146.286q14.857 0 25.714-10.857t10.857-25.714z" horiz-adv-x="220" />
</font>
</defs>
</svg>
